<svg id="logo" xmlns="http://www.w3.org/2000/svg" width="410.632" height="75.274" viewBox="0 0 410.632 75.274">
  <path id="Path_1" data-name="Path 1" d="M199.74,140.19a6.471,6.471,0,0,1-4.575-11.046l12.852-12.852a2.421,2.421,0,1,0-3.424-3.424l-12.987,12.988a6.471,6.471,0,0,1-9.152-9.15l12.989-12.989a15.362,15.362,0,1,1,21.725,21.725L204.316,138.3a6.451,6.451,0,0,1-4.575,1.9Z" transform="translate(-175.779 -99.219)" fill="#fff"/>
  <path id="Path_2" data-name="Path 2" d="M843.48,1789.84" transform="translate(-812.954 -1724.181)" fill="#03c" stroke="#03f" stroke-linecap="round" stroke-miterlimit="10" stroke-width="50"/>
  <path id="Path_3" data-name="Path 3" d="M330.381,751.259a15.362,15.362,0,0,0-21.725,0L294.51,765.405l-4.716,4.716L274.078,785.84a6.47,6.47,0,1,0,9.15,9.151l4.99-4.992a15.592,15.592,0,0,0,1.576,1.847,15.363,15.363,0,0,0,21.725,0l18.862-18.862a15.362,15.362,0,0,0,0-21.725Zm-9.151,12.574-18.862,18.86a2.421,2.421,0,0,1-3.424-3.424l4.715-4.715,14.146-14.146a2.421,2.421,0,0,1,3.424,3.424Z" transform="translate(-263.843 -721.611)" fill="#fff"/>
  <path id="Path_4" data-name="Path 4" d="M114.913,174.5a8.9,8.9,0,0,0-12.574,0h0l-12.41,12.407.007.007c-.074.068-.148.137-.22.209a11.312,11.312,0,1,1-16-16c.072-.072.141-.145.209-.22l.005.005,12.414-12.4a2.418,2.418,0,0,1,3.414,3.414l0,0A8.891,8.891,0,1,0,77.19,149.35h0L64.781,161.76l.005.005c-.074.068-.148.137-.22.209a24.277,24.277,0,0,0-.23,34.058q.111.123.23.242a24.253,24.253,0,0,0,34.3,0c.072-.072.141-.145.209-.22l0,0,12.414-12.4h0a2.418,2.418,0,0,1,3.414,3.414l0,0A8.888,8.888,0,0,0,114.913,174.5Z" transform="translate(-57.477 -144.9)" fill="#fff"/>
  <path id="Path_5" data-name="Path 5" d="M2334.031,684.606a8.1,8.1,0,0,0,5.957-2.358l7.446,4.282c-3.04,4.219-7.632,6.39-13.526,6.39-10.61,0-17.186-7.135-17.186-16.38s6.7-16.38,16.506-16.38c9.059,0,15.76,7.011,15.76,16.38a18.058,18.058,0,0,1-.372,3.723h-22.029C2327.764,683.489,2330.618,684.606,2334.031,684.606Zm5.709-11.293a6.387,6.387,0,0,0-6.577-4.9c-3.537,0-5.894,1.738-6.763,4.9Z" transform="translate(-2228.977 -638.375)" fill="#fff"/>
  <path id="Path_6" data-name="Path 6" d="M3283.26,315.07h9.307v45.294h-9.307Z" transform="translate(-3157.979 -306.687)" fill="#fff"/>
  <path id="Path_7" data-name="Path 7" d="M3692.109,661.029v31.023H3682.8v-2.916c-2.047,2.357-5.088,3.784-9.243,3.784-8.128,0-14.829-7.135-14.829-16.38s6.7-16.38,14.829-16.38c4.156,0,7.2,1.427,9.243,3.785v-2.916ZM3682.8,676.54c0-4.654-3.1-7.57-7.383-7.57s-7.383,2.916-7.383,7.57,3.1,7.57,7.383,7.57S3682.8,681.194,3682.8,676.54Z" transform="translate(-3518.867 -638.375)" fill="#fff"/>
  <path id="Path_8" data-name="Path 8" d="M4656.285,682.745c0,7.135-6.2,10.175-12.905,10.175-6.2,0-10.92-2.357-13.34-7.383l8.066-4.591a5.1,5.1,0,0,0,5.274,3.661c2.234,0,3.351-.682,3.351-1.923,0-3.413-15.263-1.613-15.263-12.348,0-6.763,5.709-10.175,12.161-10.175a13.574,13.574,0,0,1,12.1,6.639l-7.94,4.281a4.5,4.5,0,0,0-4.156-2.73c-1.613,0-2.606.621-2.606,1.738C4641.022,673.624,4656.285,671.266,4656.285,682.745Z" transform="translate(-4452.454 -638.375)" fill="#fff"/>
  <path id="Path_9" data-name="Path 9" d="M5981.61,330.244a5.584,5.584,0,1,1,5.584,5.584A5.641,5.641,0,0,1,5981.61,330.244Zm.932,8.314h9.307v31.023h-9.309Z" transform="translate(-5751.533 -315.904)" fill="#fff"/>
  <path id="Path_10" data-name="Path 10" d="M6381,676.54a16.409,16.409,0,0,1,30.465-8.438l-8.127,4.716a6.426,6.426,0,0,0-6.02-3.475,7.2,7.2,0,0,0,0,14.395,6.365,6.365,0,0,0,6.02-3.474l8.127,4.654a15.837,15.837,0,0,1-14.022,8A16.072,16.072,0,0,1,6381,676.54Z" transform="translate(-6135.412 -638.375)" fill="#fff"/>
  <path id="Path_11" data-name="Path 11" d="M7302.661,676.54c0,9.243-6.7,16.38-14.829,16.38-4.156,0-7.2-1.427-9.244-3.784v15.325h-9.308V661.028h9.307v2.916c2.048-2.357,5.088-3.785,9.244-3.785C7295.96,660.16,7302.661,667.3,7302.661,676.54Zm-9.307,0c0-4.654-3.1-7.57-7.384-7.57s-7.384,2.916-7.384,7.57,3.1,7.57,7.384,7.57S7293.354,681.193,7293.354,676.54Z" transform="translate(-6989.193 -638.375)" fill="#fff"/>
  <path id="Path_12" data-name="Path 12" d="M8258.049,661.029v31.023h-9.307v-2.916c-2.048,2.357-5.088,3.784-9.243,3.784-8.128,0-14.829-7.135-14.829-16.38s6.7-16.38,14.829-16.38c4.155,0,7.2,1.427,9.243,3.785v-2.916Zm-9.307,15.512c0-4.654-3.1-7.57-7.383-7.57s-7.384,2.916-7.384,7.57,3.1,7.57,7.384,7.57S8248.742,681.194,8248.742,676.54Z" transform="translate(-7907.478 -638.375)" fill="#fff"/>
  <path id="Path_13" data-name="Path 13" d="M9210.27,503.528V514.51c0,2.668,2.295,2.916,6.391,2.668v8.439c-12.161,1.243-15.7-2.42-15.7-11.107V503.528H9196v-8.935h4.963v-4.769L9210.27,487v7.594h6.392v8.935Z" transform="translate(-8841.085 -471.94)" fill="#fff"/>
  <path id="Path_14" data-name="Path 14" d="M5352.42,503.528V514.51c0,2.668,2.3,2.916,6.391,2.668v8.439c-12.161,1.243-15.7-2.42-15.7-11.107V503.528h-4.963v-8.935h4.965v-4.769L5352.42,487v7.594h6.391v8.935Z" transform="translate(-5133.063 -471.94)" fill="#fff"/>
  <path id="Path_15" data-name="Path 15" d="M9893.542,349.053V368.1h-9.306V350.418c0-3.845-2.419-5.646-5.4-5.646-3.412,0-5.771,1.985-5.771,6.39V368.1h-9.308V325.946l9.307-2.826v16.874c1.676-2.3,4.777-3.785,8.873-3.785C9888.205,336.21,9893.542,340.677,9893.542,349.053Z" transform="translate(-9482.91 -314.424)" fill="#fff"/>
</svg>
